[Header]			# Header keywords are followed by a single value
FileType htr		# single word string
DataType HTRS		# Hierarchical translations followed by rotations and Scale
FileVersion 1		# integer
NumSegments 20		# integer
NumFrames 7		# integer
DataFrameRate 60	# integer
EulerRotationOrder ZYX	# one word string
CalibrationUnits mm	# one word string
RotationUnits Degrees	# one word string
GlobalAxisofGravity Y	# character, X or Y or Z
BoneLengthAxis Y
ScaleFactor 1.000000
[SegmentNames&Hierarchy]
#CHILD	PARENT
LowerTorso	GLOBAL
UpperTorso	LowerTorso
LCollarBone	UpperTorso
RCollarBone	UpperTorso
LUpArm	LCollarBone
RUpArm	RCollarBone
LLowArm	LUpArm
RLowArm	RUpArm
LHand	LLowArm
RHand	RLowArm
LPelvis	LowerTorso
RPelvis	LowerTorso
LThigh	LPelvis
RThigh	RPelvis
LLowLeg	LThigh
RLowLeg	RThigh
LFoot	LLowLeg
RFoot	RLowLeg
Neck	UpperTorso
Head	Neck
[BasePosition]
#SegmentName Tx, Ty, Tz, Rx, Ry, Rz, BoneLength
LowerTorso	0.000000	0.000000	0.000000	0.000000	0.000000	0.000000	247.497849
UpperTorso	0.000000	247.497849	0.000000	-3.483188	-0.016176	-0.898562	303.935425
LCollarBone	0.000000	303.935425	0.000000	-2.778975	2.380151	-103.909637	160.814774
RCollarBone	0.000000	303.935425	0.000000	1.923138	-2.431442	97.423370	173.085861
LUpArm	0.000000	160.814774	0.000000	9.905276	-0.146364	3.830753	266.228302
RUpArm	0.000000	173.085861	0.000000	3.559436	0.163580	4.186032	250.544907
LLowArm	0.000000	266.228302	0.000000	0.604391	2.460426	18.478745	239.401855
RLowArm	0.000000	250.544907	0.000000	-4.677841	-1.676118	-16.763147	247.676224
LHand	0.000000	239.401855	0.000000	-2.922581	-1.504997	-10.879651	178.693573
RHand	0.000000	247.676224	0.000000	8.087741	0.221451	14.771751	171.097885
LPelvis	0.000000	0.000000	0.000000	25.628080	-1.004481	-103.107483	127.213554
RPelvis	0.000000	0.000000	0.000000	7.212610	1.026056	95.806335	154.731140
LThigh	0.000000	127.213554	0.000000	-8.629928	-24.934669	-78.343170	392.414856
RThigh	0.000000	154.731140	0.000000	-0.087953	7.045837	82.361420	403.151337
LLowLeg	0.000000	392.414856	0.000000	-11.135172	-0.396179	6.207254	411.539612
RLowLeg	0.000000	403.151337	0.000000	-15.879393	-0.038285	-2.567663	396.965240
LFoot	0.000000	411.539612	0.000000	86.993790	-9.419292	-7.421347	182.020935
RFoot	0.000000	396.965240	0.000000	85.685738	19.489246	8.810133	181.714371
Neck	0.000000	303.935425	0.000000	26.917892	0.010495	-0.245093	141.112030
Head	0.000000	141.112030	0.000000	-34.290924	-1.751020	-3.852423	164.098740
#Beginning of Data. Separated by tabs.
[LowerTorso]
#Fr	Tx	Ty	Tz	Rx	Ry	Rz	SF
500	274.143890	885.888245	-1104.844482	11.693580	25.728605	-4.225577	1.000000
501	277.521576	889.607483	-1089.784912	12.068705	26.724133	-3.624656	1.000000
502	280.825867	892.237671	-1074.259277	12.427637	27.707714	-3.007862	1.000000
503	284.121857	893.767517	-1058.237793	12.765862	28.670130	-2.383098	1.000000
504	287.502167	894.246826	-1041.581787	13.046048	29.624262	-1.774128	1.000000
505	290.985016	893.694946	-1024.192383	13.246217	30.593586	-1.200254	1.000000
506	294.460541	892.072937	-1006.107178	13.387136	31.558168	-0.650404	1.000000
[UpperTorso]
#Fr	Tx	Ty	Tz	Rx	Ry	Rz	SF
500	0.000000	0.000000	0.000000	11.275864	-14.928321	10.513953	1.000000
501	0.000000	0.000000	0.000000	10.689009	-16.101639	10.319015	1.000000
502	0.000000	0.000000	0.000000	10.117415	-17.087282	10.189499	1.000000
503	0.000000	0.000000	0.000000	9.562769	-17.888756	10.160773	1.000000
504	0.000000	0.000000	0.000000	9.026876	-18.575958	10.229925	1.000000
505	0.000000	0.000000	0.000000	8.498735	-19.242788	10.331989	1.000000
506	0.000000	0.000000	0.000000	7.979859	-19.903152	10.446533	1.000000
[LCollarBone]
#Fr	Tx	Ty	Tz	Rx	Ry	Rz	SF
500	0.000000	0.000000	0.000000	9.013449	-1.312448	17.689342	1.000000
501	0.000000	0.000000	0.000000	8.978127	-1.432778	18.297861	1.000000
502	0.000000	0.000000	0.000000	9.178133	-1.531168	18.698467	1.000000
503	0.000000	0.000000	0.000000	9.629380	-1.614085	18.899427	1.000000
504	0.000000	0.000000	0.000000	10.238744	-1.682439	18.951851	1.000000
505	0.000000	0.000000	0.000000	10.898549	-1.731147	18.892811	1.000000
506	0.000000	0.000000	0.000000	11.496121	-1.749555	18.736668	1.000000
[RCollarBone]
#Fr	Tx	Ty	Tz	Rx	Ry	Rz	SF
500	0.000000	0.000000	0.000000	8.548620	0.769409	-17.177864	1.000000
501	0.000000	0.000000	0.000000	8.352384	0.759014	-17.384670	1.000000
502	0.000000	0.000000	0.000000	8.190429	0.734345	-17.426897	1.000000
503	0.000000	0.000000	0.000000	8.078029	0.710821	-17.392937	1.000000
504	0.000000	0.000000	0.000000	8.063991	0.700448	-17.319365	1.000000
505	0.000000	0.000000	0.000000	8.241365	0.722323	-17.232265	1.000000
506	0.000000	0.000000	0.000000	8.623034	0.774123	-17.105450	1.000000
[LUpArm]
#Fr	Tx	Ty	Tz	Rx	Ry	Rz	SF
500	0.000000	0.000000	0.000000	-5.163211	-9.296190	3.959510	1.000000
501	0.000000	0.000000	0.000000	-5.391543	-8.416922	5.330183	1.000000
502	0.000000	0.000000	0.000000	-5.629219	-7.660045	6.639883	1.000000
503	0.000000	0.000000	0.000000	-5.942969	-7.030147	7.832294	1.000000
504	0.000000	0.000000	0.000000	-6.303525	-6.499326	8.847395	1.000000
505	0.000000	0.000000	0.000000	-6.672687	-6.002145	9.656194	1.000000
506	0.000000	0.000000	0.000000	-6.940314	-5.479000	10.262159	1.000000
[RUpArm]
#Fr	Tx	Ty	Tz	Rx	Ry	Rz	SF
500	0.000000	0.000000	0.000000	4.029102	-8.346546	-23.531374	1.000000
501	0.000000	0.000000	0.000000	3.567252	-5.467874	-26.964048	1.000000
502	0.000000	0.000000	0.000000	2.842850	-2.082605	-30.326488	1.000000
503	0.000000	0.000000	0.000000	1.979310	1.596504	-33.572212	1.000000
504	0.000000	0.000000	0.000000	1.093913	5.516340	-36.644878	1.000000
505	0.000000	0.000000	0.000000	0.240110	9.640330	-39.470551	1.000000
506	0.000000	0.000000	0.000000	-0.486816	13.961437	-42.011974	1.000000
[LLowArm]
#Fr	Tx	Ty	Tz	Rx	Ry	Rz	SF
500	0.000000	0.000000	0.000000	-5.626933	0.851680	-0.161515	1.000000
501	0.000000	0.000000	0.000000	-6.636469	1.002550	-0.199293	1.000000
502	0.000000	0.000000	0.000000	-7.454082	1.124219	-0.231831	1.000000
503	0.000000	0.000000	0.000000	-7.938011	1.196003	-0.251905	1.000000
504	0.000000	0.000000	0.000000	-8.072650	1.215943	-0.257598	1.000000
505	0.000000	0.000000	0.000000	-7.940408	1.196357	-0.252006	1.000000
506	0.000000	0.000000	0.000000	-7.690465	1.159304	-0.241561	1.000000
[RLowArm]
#Fr	Tx	Ty	Tz	Rx	Ry	Rz	SF
500	0.000000	0.000000	0.000000	16.030703	1.400049	0.175557	1.000000
501	0.000000	0.000000	0.000000	19.333939	1.679098	0.259910	1.000000
502	0.000000	0.000000	0.000000	23.011877	1.983410	0.372563	1.000000
503	0.000000	0.000000	0.000000	26.896118	2.296129	0.512451	1.000000
504	0.000000	0.000000	0.000000	30.901184	2.607759	0.678510	1.000000
505	0.000000	0.000000	0.000000	35.031017	2.915999	0.872074	1.000000
506	0.000000	0.000000	0.000000	39.240986	3.214895	1.091688	1.000000
[LHand]
#Fr	Tx	Ty	Tz	Rx	Ry	Rz	SF
500	0.000000	0.000000	0.000000	17.578726	-3.938937	4.480493	1.000000
501	0.000000	0.000000	0.000000	18.859856	-2.038851	4.319445	1.000000
502	0.000000	0.000000	0.000000	19.321480	0.014614	4.459945	1.000000
503	0.000000	0.000000	0.000000	18.700060	2.448508	5.050343	1.000000
504	0.000000	0.000000	0.000000	17.128063	5.324160	6.051687	1.000000
505	0.000000	0.000000	0.000000	15.130178	8.409513	7.245630	1.000000
506	0.000000	0.000000	0.000000	13.508858	11.066509	8.340992	1.000000
[RHand]
#Fr	Tx	Ty	Tz	Rx	Ry	Rz	SF
500	0.000000	0.000000	0.000000	8.937055	8.469589	-12.315434	1.000000
501	0.000000	0.000000	0.000000	8.522598	7.694477	-13.111494	1.000000
502	0.000000	0.000000	0.000000	7.973839	7.207222	-13.741855	1.000000
503	0.000000	0.000000	0.000000	7.349330	6.892118	-14.244460	1.000000
504	0.000000	0.000000	0.000000	6.685194	6.578961	-14.663732	1.000000
505	0.000000	0.000000	0.000000	5.993793	6.112177	-15.032833	1.000000
506	0.000000	0.000000	0.000000	5.269220	5.385725	-15.375562	1.000000
[LPelvis]
#Fr	Tx	Ty	Tz	Rx	Ry	Rz	SF
500	0.000000	0.000000	0.000000	0.000000	0.000000	0.000000	1.000000
501	0.000000	0.000000	0.000000	0.000000	0.000000	0.000000	1.000000
502	0.000000	0.000000	0.000000	0.000000	0.000000	0.000000	1.000000
503	0.000000	0.000000	0.000000	0.000000	0.000000	0.000000	1.000000
504	0.000000	0.000000	0.000000	0.000000	0.000000	0.000000	1.000000
505	0.000000	0.000000	0.000000	0.000000	0.000000	0.000000	1.000000
506	0.000000	0.000000	0.000000	0.000000	0.000000	0.000000	1.000000
[RPelvis]
#Fr	Tx	Ty	Tz	Rx	Ry	Rz	SF
500	0.000000	0.000000	0.000000	0.000000	0.000000	0.000000	1.000000
501	0.000000	0.000000	0.000000	0.000000	0.000000	0.000000	1.000000
502	0.000000	0.000000	0.000000	0.000000	0.000000	0.000000	1.000000
503	0.000000	0.000000	0.000000	0.000000	0.000000	0.000000	1.000000
504	0.000000	0.000000	0.000000	0.000000	0.000000	0.000000	1.000000
505	0.000000	0.000000	0.000000	0.000000	0.000000	0.000000	1.000000
506	0.000000	0.000000	0.000000	0.000000	0.000000	0.000000	1.000000
[LThigh]
#Fr	Tx	Ty	Tz	Rx	Ry	Rz	SF
500	0.000000	0.000000	0.000000	12.128859	-0.683450	1.620758	1.000000
501	0.000000	0.000000	0.000000	11.051350	-0.936503	1.623855	1.000000
502	0.000000	0.000000	0.000000	10.100903	-1.246748	1.625347	1.000000
503	0.000000	0.000000	0.000000	9.231009	-1.575263	1.640529	1.000000
504	0.000000	0.000000	0.000000	8.307280	-1.780678	1.722151	1.000000
505	0.000000	0.000000	0.000000	7.251701	-1.752227	1.899869	1.000000
506	0.000000	0.000000	0.000000	6.094135	-1.519996	2.154084	1.000000
[RThigh]
#Fr	Tx	Ty	Tz	Rx	Ry	Rz	SF
500	0.000000	0.000000	0.000000	48.012997	13.093294	9.177870	1.000000
501	0.000000	0.000000	0.000000	47.831093	12.433317	8.274002	1.000000
502	0.000000	0.000000	0.000000	47.499977	11.688025	7.197430	1.000000
503	0.000000	0.000000	0.000000	47.045197	10.933848	6.042853	1.000000
504	0.000000	0.000000	0.000000	46.471668	10.251861	4.932405	1.000000
505	0.000000	0.000000	0.000000	45.823154	9.737089	3.994505	1.000000
506	0.000000	0.000000	0.000000	45.194214	9.449963	3.307381	1.000000
[LLowLeg]
#Fr	Tx	Ty	Tz	Rx	Ry	Rz	SF
500	0.000000	0.000000	0.000000	-19.422619	1.603795	0.142059	1.000000
501	0.000000	0.000000	0.000000	-18.272568	1.508264	0.148867	1.000000
502	0.000000	0.000000	0.000000	-17.482645	1.442574	0.152431	1.000000
503	0.000000	0.000000	0.000000	-17.008406	1.403114	0.154136	1.000000
504	0.000000	0.000000	0.000000	-16.689251	1.376550	0.155099	1.000000
505	0.000000	0.000000	0.000000	-16.393986	1.351970	0.155858	1.000000
506	0.000000	0.000000	0.000000	-16.120878	1.329232	0.156447	1.000000
[RLowLeg]
#Fr	Tx	Ty	Tz	Rx	Ry	Rz	SF
500	0.000000	0.000000	0.000000	-22.581356	-1.272596	-0.083080	1.000000
501	0.000000	0.000000	0.000000	-19.543137	-1.100893	-0.101241	1.000000
502	0.000000	0.000000	0.000000	-16.613115	-0.934605	-0.110110	1.000000
503	0.000000	0.000000	0.000000	-13.811031	-0.775343	-0.110628	1.000000
504	0.000000	0.000000	0.000000	-11.157571	-0.624668	-0.103940	1.000000
505	0.000000	0.000000	0.000000	-8.719173	-0.486612	-0.091649	1.000000
506	0.000000	0.000000	0.000000	-6.608494	-0.367623	-0.076275	1.000000
[LFoot]
#Fr	Tx	Ty	Tz	Rx	Ry	Rz	SF
500	0.000000	0.000000	0.000000	6.183052	-2.089224	-2.818745	1.000000
501	0.000000	0.000000	0.000000	4.033266	-2.358068	-3.846438	1.000000
502	0.000000	0.000000	0.000000	2.045017	-2.663558	-4.720195	1.000000
503	0.000000	0.000000	0.000000	0.186308	-3.003474	-5.489164	1.000000
504	0.000000	0.000000	0.000000	-1.495517	-3.393365	-6.210353	1.000000
505	0.000000	0.000000	0.000000	-2.926141	-3.797007	-6.850616	1.000000
506	0.000000	0.000000	0.000000	-4.117370	-4.182731	-7.394621	1.000000
[RFoot]
#Fr	Tx	Ty	Tz	Rx	Ry	Rz	SF
500	0.000000	0.000000	0.000000	-11.616530	-5.270309	-2.370982	1.000000
501	0.000000	0.000000	0.000000	-12.289351	-4.926653	-1.585171	1.000000
502	0.000000	0.000000	0.000000	-12.601753	-4.562067	-0.968657	1.000000
503	0.000000	0.000000	0.000000	-12.585011	-4.247098	-0.568465	1.000000
504	0.000000	0.000000	0.000000	-12.422565	-4.165461	-0.531095	1.000000
505	0.000000	0.000000	0.000000	-12.266694	-4.412516	-0.920739	1.000000
506	0.000000	0.000000	0.000000	-12.122582	-4.865862	-1.582993	1.000000
[Neck]
#Fr	Tx	Ty	Tz	Rx	Ry	Rz	SF
500	0.000000	0.000000	0.000000	-5.310029	-9.529552	8.159915	1.000000
501	0.000000	0.000000	0.000000	-4.890800	-9.617523	8.360747	1.000000
502	0.000000	0.000000	0.000000	-4.486115	-9.751114	8.560764	1.000000
503	0.000000	0.000000	0.000000	-4.095386	-9.928351	8.745736	1.000000
504	0.000000	0.000000	0.000000	-3.718384	-10.139512	8.904029	1.000000
505	0.000000	0.000000	0.000000	-3.355487	-10.365428	9.031092	1.000000
506	0.000000	0.000000	0.000000	-3.011113	-10.589752	9.128119	1.000000
[Head]
#Fr	Tx	Ty	Tz	Rx	Ry	Rz	SF
500	0.000000	0.000000	0.000000	-8.935199	-25.146093	4.426706	1.000000
501	0.000000	0.000000	0.000000	-8.135344	-25.473242	4.551284	1.000000
502	0.000000	0.000000	0.000000	-7.331162	-25.919952	4.607150	1.000000
503	0.000000	0.000000	0.000000	-6.510294	-26.463976	4.547291	1.000000
504	0.000000	0.000000	0.000000	-5.670952	-27.026390	4.370838	1.000000
505	0.000000	0.000000	0.000000	-4.804260	-27.555258	4.081885	1.000000
506	0.000000	0.000000	0.000000	-3.934689	-28.008898	3.725834	1.000000
[EndOfFile]
